# xmcd CD database file
#
# Track frame offsets:
#	150
#	15400
#	27877
#	39267
#	54927
#	69657
#	85787
#	100905
#	112915
#	128005
#	141362
#	157190
#	171390
#	182237
#
# Disc length: 2687 seconds
#
# Revision: 2
# Processed by: cddbd v1.5.2PL0 Copyright (c) Steve Scherf et al.
# Submitted via: CDex 1.70beta3
#
DISCID=b30a7d0e
DTITLE=グラシェラ・スサーナ - アドロ・サバの女王
DYEAR=1992
DGENRE=Blues
TTITLE0=アドロ
TTITLE1=遠くへ行きたい
TTITLE2=雪が降る
TTITLE3=誰もいない海
TTITLE4=サン・トワ・マミー
TTITLE5=時計
TTITLE6=サバの女王
TTITLE7=竹田の子守唄
TTITLE8=あなたのすべてを
TTITLE9=恋心
TTITLE10=忘れな草をあなたに
TTITLE11=夜霧のしのび逢い
TTITLE12=爪
TTITLE13=希望
EXTD=YEAR: 1992
EXTT0=
EXTT1=
EXTT2=
EXTT3=
EXTT4=
EXTT5=
EXTT6=
EXTT7=
EXTT8=
EXTT9=
EXTT10=
EXTT11=
EXTT12=
EXTT13=
PLAYORDER=
